<svg width="28" height="28" version="1.1" viewBox="0 0 7.4083333 7.4083333" xmlns="http://www.w3.org/2000/svg">
 <g transform="translate(0 -289.59)">
  <rect transform="scale(-1,1)" x="-7.4083" y="291.03" width="7.4083" height="4.5313" ry=".74559" fill="#3d3c36"/>
  <g fill="#fff">
   <path d="m0.82556 291.62s-0.10715-0.20944-0.2277-0.19605c0 0-0.24962-0.0276-0.24962 0.22932v2.9934s0.005682 0.29628 0.28087 0.29628h0.90917v-2.0866" opacity=".6"/>
   <path d="m0.68756 291.4s0.10147 0.0276 0.16885 0.15911l1.3946 2.3918s0.070623 0.19564 0.37341 0.19564c0 0 1.0374 2e-3 1.0382 0 0-4e-3 -0.047488 0-0.075088-0.0727l-1.462-2.4924s-0.07387-0.18144-0.29548-0.18144" opacity=".6"/>
   <path d="m3.1151 293.13s0.48787 0.84423 0.48259 0.84423c-0.00568 0 0.084828 0.17372 0.2074 0l0.66321-1.0573v-1.2643s0.00935-0.23095-0.18427-0.23095c0 0-0.1315-0.0223-0.28209 0.22609" opacity=".6"/>
   <path d="m4.401 291.4s0.14571 0.0499 0.14571 0.26301v3.2836h2.2336s0.25855 0.0223 0.25855-0.24555v-3.0441s0.00529-0.25692-0.25855-0.25692" opacity=".6"/>
  </g>
 </g>
</svg>
