<svg width="24" height="24" version="1.1" viewBox="0 0 6.35 6.35" xmlns="http://www.w3.org/2000/svg">
 <g transform="translate(0,-290.65)">
  <rect transform="scale(-1,1)" x="-6.35" y="291.88" width="6.35" height="3.8839" ry=".63907" fill="#3d3c36"/>
  <g fill="#fff">
   <path d="m0.70762 292.39s-0.091845-0.17952-0.19517-0.16804c0 0-0.21396-0.0237-0.21396 0.19656v2.5657s0.00487 0.25396 0.24074 0.25396h0.77929v-1.7885" opacity=".6"/>
   <path d="m0.58934 292.2s0.086974 0.0237 0.14472 0.13638l1.1954 2.0502s0.060534 0.16769 0.32006 0.16769c0 0 0.88922 2e-3 0.88992 0 0-3e-3 -0.040704 0-0.064361-0.0623l-1.2531-2.1364s-0.063317-0.15552-0.25327-0.15552" opacity=".6"/>
   <path d="m2.6701 293.69s0.41817 0.72363 0.41365 0.72363c-0.00487 0 0.07271 0.1489 0.17778 0l0.56846-0.90627v-1.0837s0.00801-0.19796-0.15795-0.19796c0 0-0.11272-0.0191-0.24179 0.19379" opacity=".6"/>
   <path d="m3.7722 292.2s0.12489 0.0428 0.12489 0.22544v2.8145h1.9145s0.22161 0.0191 0.22161-0.21047v-2.6092s0.00453-0.22022-0.22161-0.22022" opacity=".6"/>
  </g>
 </g>
</svg>
