<svg width="16" height="16" version="1.1" viewBox="0 0 4.2333333 4.2333333" xmlns="http://www.w3.org/2000/svg">
 <g transform="translate(0 -292.77)">
  <rect transform="scale(-1,1)" x="-4.2333" y="293.59" width="4.2333" height="2.5893" ry=".42605" fill="#41a6ce"/>
  <g fill="#fff">
   <path d="m0.47175 293.93s-0.06123-0.11968-0.13011-0.11202c0 0-0.14264-0.0158-0.14264 0.13104v1.7105s0.003247 0.16931 0.1605 0.16931h0.51953v-1.1924"/>
   <path d="m0.39289 293.8s0.057983 0.0158 0.096483 0.0909l0.79692 1.3668s0.040356 0.11179 0.21338 0.11179c0 0 0.59282 1e-3 0.59328 0 0-2e-3 -0.027136 0-0.042907-0.0415l-0.83542-1.4243s-0.042211-0.10368-0.16885-0.10368"/>
   <path d="m1.7801 294.79s0.27878 0.48242 0.27577 0.48242c-0.00325 0 0.048473 0.0993 0.11852 0l0.37898-0.60418v-0.72246s0.00534-0.13198-0.1053-0.13198c0 0-0.075146-0.0127-0.16119 0.1292"/>
   <path d="m2.5148 293.8s0.083263 0.0285 0.083263 0.1503v1.8763h1.2763s0.14774 0.0127 0.14774-0.14032v-1.7395s0.00302-0.14682-0.14774-0.14682"/>
  </g>
 </g>
</svg>
